<svg width="32" height="34" viewBox="0 0 32 34" fill="none" xmlns="http://www.w3.org/2000/svg" xmlns:xlink="http://www.w3.org/1999/xlink">
<line x1="29.194" y1="18.753" x2="0.805" y2="18.753" stroke="#6F787C" stroke-width="2" stroke-miterlimit="3.999327" stroke-linecap="round" stroke-linejoin="round"/>
<path d="M27.779,32.167C28.56,32.948 29.827,32.948 30.608,32.167C31.389,31.386 31.389,30.12 30.608,29.339L27.779,32.167ZM15.194,16.753L13.779,15.339C12.998,16.12 12.998,17.386 13.779,18.167L15.194,16.753ZM30.608,4.167C31.389,3.386 31.389,2.12 30.608,1.339C29.827,0.558 28.56,0.558 27.779,1.339L30.608,4.167ZM30.608,29.339L16.608,15.339L13.779,18.167L27.779,32.167L30.608,29.339ZM16.608,18.167L30.608,4.167L27.779,1.339L13.779,15.339L16.608,18.167Z" transform="rotate(-360 22.194 16.753)" fill="#6F787C"/>
</svg>
