<svg width="32" height="34" viewBox="0 0 32 34" fill="none" xmlns="http://www.w3.org/2000/svg" xmlns:xlink="http://www.w3.org/1999/xlink">
<line x1="2.804" y1="14.753" x2="31.193" y2="14.753" stroke="#6F787C" stroke-width="2" stroke-miterlimit="3.999327" stroke-linecap="round" stroke-linejoin="round"/>
<path d="M15.39,32.167C16.171,32.948 17.438,32.948 18.219,32.167C19,31.386 19,30.12 18.219,29.339L15.39,32.167ZM2.804,16.753L1.39,15.339C0.609,16.12 0.609,17.386 1.39,18.167L2.804,16.753ZM18.219,4.167C19,3.386 19,2.12 18.219,1.339C17.438,0.558 16.171,0.558 15.39,1.339L18.219,4.167ZM18.219,29.339L4.219,15.339L1.39,18.167L15.39,32.167L18.219,29.339ZM4.219,18.167L18.219,4.167L15.39,1.339L1.39,15.339L4.219,18.167Z" transform="rotate(0 9.804 16.753)" fill="#6F787C"/>
</svg>
