<svg width="20" height="20" viewBox="0 0 20 20" fill="none" xmlns="http://www.w3.org/2000/svg" xmlns:xlink="http://www.w3.org/1999/xlink">
<path d="M7.907,18.161C7.907,18.562 8.067,18.947 8.35,19.231C8.634,19.514 9.018,19.673 9.419,19.673C9.82,19.673 10.205,19.514 10.489,19.231C10.772,18.947 10.932,18.562 10.932,18.161L10.932,11.609L17.484,11.609C17.885,11.609 18.27,11.45 18.553,11.166C18.837,10.883 18.996,10.498 18.996,10.097C18.996,9.696 18.837,9.311 18.553,9.028C18.27,8.744 17.885,8.585 17.484,8.585L10.932,8.585L10.932,2.032C10.932,1.631 10.772,1.247 10.489,0.963C10.205,0.68 9.82,0.52 9.419,0.52C9.018,0.52 8.634,0.68 8.35,0.963C8.067,1.247 7.907,1.631 7.907,2.032L7.907,8.585L1.355,8.585C0.954,8.585 0.569,8.744 0.286,9.028C0.002,9.311 -0.157,9.696 -0.157,10.097C-0.157,10.498 0.002,10.883 0.286,11.166C0.569,11.45 0.954,11.609 1.355,11.609L7.907,11.609L7.907,18.161Z" fill="#FFFFFF"/>
</svg>
